<?xml version="1.0" standalone="no"?>
<!DOCTYPE svg PUBLIC "-//W3C//DTD SVG 20010904//EN"
 "http://www.w3.org/TR/2001/REC-SVG-20010904/DTD/svg10.dtd">
<svg version="1.0" xmlns="http://www.w3.org/2000/svg"
 width="50.000000pt" height="39.000000pt" viewBox="0 0 50.000000 39.000000"
 preserveAspectRatio="xMidYMid meet">
<metadata>
Created by potrace 1.16, written by Peter Selinger 2001-2019
</metadata>
<g transform="translate(0.000000,39.000000) scale(0.009766,-0.007617)"
fill="#000000" stroke="none">
<path d="M2692 4820 c-168 -31 -364 -135 -510 -273 -102 -97 -209 -259 -257
-390 l-18 -48 -22 53 c-98 241 -374 443 -685 502 -94 18 -269 21 -356 5 -136
-24 -258 -76 -363 -155 -59 -44 -141 -134 -141 -155 0 -5 26 -9 58 -9 271 0
679 -122 960 -286 91 -54 222 -141 222 -149 0 -2 -25 7 -57 21 -113 50 -214
68 -383 68 -137 0 -168 -3 -265 -28 -193 -49 -341 -131 -453 -250 -115 -123
-171 -259 -175 -422 -1 -51 1 -95 4 -99 4 -3 57 19 118 49 61 31 155 74 208
95 96 38 317 111 336 111 6 0 -15 -26 -46 -58 -191 -201 -274 -477 -216 -720
11 -46 83 -212 92 -212 3 0 23 31 46 69 78 131 297 406 276 346 -14 -39 -18
-271 -6 -341 16 -89 58 -196 105 -267 41 -62 148 -172 168 -172 8 0 17 36 25
105 33 264 170 683 305 930 61 112 152 260 159 260 17 0 293 -402 425 -620
258 -424 450 -854 558 -1245 30 -108 72 -309 81 -385 3 -30 8 -67 11 -81 l5
-26 202 -7 c111 -4 256 -13 322 -20 66 -7 121 -12 123 -10 8 6 -73 308 -123
456 -173 523 -471 1096 -929 1788 -120 182 -171 266 -161 268 23 5 291 -63
426 -109 216 -73 463 -190 611 -290 31 -22 59 -39 62 -39 12 0 5 159 -9 215
-52 199 -185 367 -385 484 l-55 33 195 -6 c107 -3 231 -12 275 -20 44 -7 81
-13 82 -12 5 4 -49 124 -79 173 -44 74 -169 190 -254 235 -38 20 -109 49 -159
64 -79 24 -108 27 -236 28 l-146 1 76 51 c164 110 446 257 535 280 14 3 26 10
26 15 0 12 -104 94 -163 127 -115 66 -306 96 -445 72z"/>
<path d="M4083 4191 c-42 -11 -58 -24 -73 -61 -17 -41 -5 -95 27 -120 21 -16
40 -20 102 -20 136 0 178 -43 192 -196 10 -112 33 -143 107 -144 34 0 49 6 71
28 24 23 29 38 34 106 14 158 58 206 192 206 94 0 119 12 136 69 14 46 0 83
-44 115 -25 18 -42 21 -126 21 -89 -1 -104 -3 -163 -33 -35 -17 -73 -40 -82
-51 -18 -20 -19 -20 -58 14 -22 19 -61 41 -87 50 -54 19 -182 28 -228 16z"/>
<path d="M3832 2919 c-36 -11 -72 -59 -72 -97 0 -31 26 -79 49 -92 11 -5 55
-10 98 -10 132 0 174 -46 188 -205 7 -68 12 -83 36 -107 39 -39 99 -39 138 0
24 23 29 38 34 106 14 157 58 206 190 206 92 0 122 15 138 70 10 32 9 44 -7
77 -25 51 -71 66 -181 61 -66 -4 -93 -10 -145 -36 -36 -17 -72 -40 -82 -51
-18 -20 -18 -20 -45 6 -50 49 -128 77 -221 80 -47 1 -100 -2 -118 -8z"/>
<path d="M2520 839 c-531 -45 -985 -171 -1246 -344 -81 -54 -194 -166 -194
-192 0 -11 318 -13 1850 -13 1105 0 1850 4 1850 9 0 20 -82 111 -137 153 -238
183 -637 310 -1173 374 -158 19 -782 28 -950 13z"/>
</g>
</svg>
